<svg width="50" height="49" viewBox="0 0 50 49" fill="none" xmlns="http://www.w3.org/2000/svg">
<path fill-rule="evenodd" clip-rule="evenodd" d="M26.3953 33.8518H16.5061C13.7796 33.8518 11.5647 31.8979 11.5647 29.4646V16.6288C11.5647 14.1955 13.7796 12.2231 16.5061 12.2231H33.5645C36.291 12.2231 38.5059 14.1955 38.5059 16.6288V29.4646C38.5059 31.8979 36.2975 33.8518 33.5645 33.8518H33.3249V37.7843C33.3249 37.7843 28.2216 34.4847 27.7748 34.1713L27.7624 34.1627C27.3278 33.8578 27.3192 33.8518 26.3953 33.8518ZM34.0393 22.7615C34.0393 21.6453 33.1364 20.7435 32.0188 20.7435C30.9011 20.7435 29.9982 21.6453 29.9982 22.7615C29.9982 23.8777 30.9011 24.7795 32.0188 24.7795C33.1364 24.7795 34.0393 23.8777 34.0393 22.7615ZM24.929 20.7435C26.0466 20.7435 26.9496 21.6453 26.9496 22.7615C26.9496 23.8777 26.0466 24.7795 24.929 24.7795C23.8113 24.7795 22.9084 23.8777 22.9084 22.7615C22.9084 21.6453 23.8113 20.7435 24.929 20.7435ZM19.8598 22.7615C19.8598 21.6453 18.9568 20.7435 17.8392 20.7435C16.7216 20.7435 15.8186 21.6453 15.8186 22.7615C15.8186 23.8777 16.7216 24.7795 17.8392 24.7795C18.9568 24.7795 19.8598 23.8777 19.8598 22.7615Z" fill="black"/>
<mask id="mask0_452_668" style="mask-type:luminance" maskUnits="userSpaceOnUse" x="11" y="12" width="28" height="26">
<path fill-rule="evenodd" clip-rule="evenodd" d="M26.3953 33.8518H16.5061C13.7796 33.8518 11.5647 31.8979 11.5647 29.4646V16.6288C11.5647 14.1955 13.7796 12.2231 16.5061 12.2231H33.5645C36.291 12.2231 38.5059 14.1955 38.5059 16.6288V29.4646C38.5059 31.8979 36.2975 33.8518 33.5645 33.8518H33.3249V37.7843C33.3249 37.7843 28.2216 34.4847 27.7748 34.1713L27.7624 34.1627C27.3278 33.8578 27.3192 33.8518 26.3953 33.8518ZM34.0393 22.7615C34.0393 21.6453 33.1364 20.7435 32.0188 20.7435C30.9011 20.7435 29.9982 21.6453 29.9982 22.7615C29.9982 23.8777 30.9011 24.7795 32.0188 24.7795C33.1364 24.7795 34.0393 23.8777 34.0393 22.7615ZM24.929 20.7435C26.0466 20.7435 26.9496 21.6453 26.9496 22.7615C26.9496 23.8777 26.0466 24.7795 24.929 24.7795C23.8113 24.7795 22.9084 23.8777 22.9084 22.7615C22.9084 21.6453 23.8113 20.7435 24.929 20.7435ZM19.8598 22.7615C19.8598 21.6453 18.9568 20.7435 17.8392 20.7435C16.7216 20.7435 15.8186 21.6453 15.8186 22.7615C15.8186 23.8777 16.7216 24.7795 17.8392 24.7795C18.9568 24.7795 19.8598 23.8777 19.8598 22.7615Z" fill="white"/>
</mask>
<g mask="url(#mask0_452_668)">
<rect x="-424.883" y="-94.0574" width="808.236" height="807.195" fill="white"/>
</g>
</svg>
