<svg width="50" height="49" viewBox="0 0 50 49" fill="none" xmlns="http://www.w3.org/2000/svg">
<path d="M38.2159 20.4121C38.1452 16.0821 34.7927 12.2231 30.6522 12.2231C28.2578 12.2231 26.1479 13.5359 24.7588 15.4627C23.3696 13.5359 21.2598 12.2231 18.8654 12.2231C14.7249 12.2231 11.3724 16.0821 11.3017 20.4121H11.2882C11.2882 20.4386 11.2933 20.4633 11.2933 20.4898C11.2933 20.5092 11.2882 20.5286 11.2882 20.5497C11.2882 20.6715 11.3168 20.7633 11.3219 20.8797C11.6923 31.9148 24.6527 36.4389 24.6527 36.4389C24.6527 36.4389 37.8034 31.9201 38.1923 20.8974C38.1991 20.7738 38.2294 20.6768 38.2294 20.5497C38.2294 20.5286 38.2243 20.5092 38.2243 20.4898C38.2243 20.4615 38.2294 20.4386 38.2294 20.4121H38.2159Z" fill="black"/>
<mask id="mask0_452_663" style="mask-type:luminance" maskUnits="userSpaceOnUse" x="11" y="12" width="28" height="25">
<path d="M38.2159 20.4121C38.1452 16.0821 34.7927 12.2231 30.6522 12.2231C28.2578 12.2231 26.1479 13.5359 24.7588 15.4627C23.3696 13.5359 21.2598 12.2231 18.8654 12.2231C14.7249 12.2231 11.3724 16.0821 11.3017 20.4121H11.2882C11.2882 20.4386 11.2933 20.4633 11.2933 20.4898C11.2933 20.5092 11.2882 20.5286 11.2882 20.5497C11.2882 20.6715 11.3168 20.7633 11.3219 20.8797C11.6923 31.9148 24.6527 36.4389 24.6527 36.4389C24.6527 36.4389 37.8034 31.9201 38.1923 20.8974C38.1991 20.7738 38.2294 20.6768 38.2294 20.5497C38.2294 20.5286 38.2243 20.5092 38.2243 20.4898C38.2243 20.4615 38.2294 20.4386 38.2294 20.4121H38.2159Z" fill="white"/>
</mask>
<g mask="url(#mask0_452_663)">
<rect x="-458.835" y="-248.769" width="808.235" height="807.193" fill="white"/>
</g>
</svg>
