<svg width="50" height="49" viewBox="0 0 50 49" fill="none" xmlns="http://www.w3.org/2000/svg">
<path d="M33.4845 30.3346C32.5276 30.3346 31.6343 30.6556 30.9964 31.2979L21.8748 25.9674C21.9386 25.6462 22.0025 25.3891 22.0025 25.068C22.0025 24.7468 21.9386 24.4897 21.8748 24.1686L30.8693 18.9027C31.5708 19.5449 32.464 19.93 33.4845 19.93C35.5893 19.93 37.3117 18.1958 37.3117 16.0765C37.3117 13.9574 35.5893 12.2231 33.4845 12.2231C31.3795 12.2231 29.6571 13.9574 29.6571 16.0766C29.6571 16.3977 29.7206 16.6549 29.7849 16.976L20.7906 22.2419C20.0889 21.5997 19.1959 21.2146 18.1752 21.2146C16.0703 21.2146 14.4118 22.9488 14.4118 25.0681C14.4118 27.1873 16.1338 28.9215 18.239 28.9215C19.2597 28.9215 20.1527 28.5364 20.8544 27.8941L29.9125 33.2247C29.8483 33.4812 29.7848 33.7384 29.7848 34.0594C29.7848 36.1148 31.443 37.7843 33.4844 37.7843C35.5257 37.7843 37.1839 36.1148 37.1839 34.0594C37.184 32.0041 35.5258 30.3346 33.4845 30.3346Z" fill="black"/>
<mask id="mask0_452_681" style="mask-type:luminance" maskUnits="userSpaceOnUse" x="14" y="12" width="24" height="26">
<path d="M33.4845 30.3346C32.5276 30.3346 31.6343 30.6556 30.9964 31.2979L21.8748 25.9674C21.9386 25.6462 22.0025 25.3891 22.0025 25.068C22.0025 24.7468 21.9386 24.4897 21.8748 24.1686L30.8693 18.9027C31.5708 19.5449 32.464 19.93 33.4845 19.93C35.5893 19.93 37.3117 18.1958 37.3117 16.0765C37.3117 13.9574 35.5893 12.2231 33.4845 12.2231C31.3795 12.2231 29.6571 13.9574 29.6571 16.0766C29.6571 16.3977 29.7206 16.6549 29.7849 16.976L20.7906 22.2419C20.0889 21.5997 19.1959 21.2146 18.1752 21.2146C16.0703 21.2146 14.4118 22.9488 14.4118 25.0681C14.4118 27.1873 16.1338 28.9215 18.239 28.9215C19.2597 28.9215 20.1527 28.5364 20.8544 27.8941L29.9125 33.2247C29.8483 33.4812 29.7848 33.7384 29.7848 34.0594C29.7848 36.1148 31.443 37.7843 33.4844 37.7843C35.5257 37.7843 37.1839 36.1148 37.1839 34.0594C37.184 32.0041 35.5258 30.3346 33.4845 30.3346Z" fill="white"/>
</mask>
<g mask="url(#mask0_452_681)">
<rect x="-458.406" y="-248.77" width="808.235" height="807.195" fill="white"/>
</g>
</svg>
